<svg width="100" height="101" viewBox="0 0 100 101" fill="none" xmlns="http://www.w3.org/2000/svg">
<path d="M18.9987 12.5103L18.2388 13.4721C18.5678 12.2992 18.8107 11.3765 18.9752 10.6806L19.7117 7.55294C20.4638 5.28536 19.9781 3.93264 17.7139 3.17417C16.006 2.88486 14.5017 3.13508 13.7496 4.64419L10.1301 19.876C9.62864 21.6744 9.45628 23.0194 11.7205 23.7778L25.9088 27.3747C28.1808 28.1253 29.8026 27.1714 30.4528 25.2947C31.0874 23.4103 29.7007 21.5572 28.0085 21.2131L21.9994 19.6649C22.5556 19.2661 22.5165 19.0237 23.3077 18.3982C32.3018 11.3609 40.0893 7.54512 49.906 7.54512C72.5478 7.54512 92.4083 27.8907 92.4083 50.4883C92.4083 73.0936 72.5478 93.0483 49.906 93.0483C27.2642 93.0483 7.40363 73.0936 7.40363 50.4883C7.40363 48.2285 5.91507 46.4223 3.64306 46.4223C1.37888 46.4223 -1.07113e-07 48.2285 0 50.4883C0 77.621 22.728 100.5 49.906 100.5C77.0761 100.5 100 77.5506 100 50.4257C100 23.3008 78.2983 0.5 50 0.5C38.5437 0.584574 27.5152 4.85437 18.9987 12.5025V12.5103ZM43.9517 34.4901V58.2684C43.9517 60.536 45.4638 62.0373 47.728 62.0373H64.8699C67.142 62.0373 68.5522 60.5282 68.5522 58.2684C68.5522 56.0086 67.142 54.953 64.8699 54.953H51.3162V34.498C51.3162 32.2382 50.0313 30.69 47.7593 30.69C45.4951 30.69 43.9596 32.2382 43.9596 34.498L43.9517 34.4901Z" fill="#5AA9E7"/>
</svg>
