<svg width="130" height="131" viewBox="0 0 130 131" fill="none" xmlns="http://www.w3.org/2000/svg">
<path d="M70.1187 35.5391C76.6478 35.5391 81.9406 30.2462 81.9406 23.7172C81.9406 17.1882 76.6478 11.8953 70.1187 11.8953C63.5897 11.8953 58.2969 17.1882 58.2969 23.7172C58.2969 30.2462 63.5897 35.5391 70.1187 35.5391Z" stroke="#5AA9E7" stroke-width="2.8125"/>
<path d="M108.936 76.5093C115.465 76.5093 120.758 71.2165 120.758 64.6875C120.758 58.1584 115.465 52.8656 108.936 52.8656C102.407 52.8656 97.1143 58.1584 97.1143 64.6875C97.1143 71.2165 102.407 76.5093 108.936 76.5093Z" stroke="#5AA9E7" stroke-width="2.8125"/>
<path d="M70.1187 115.042C76.6478 115.042 81.9406 109.749 81.9406 103.22C81.9406 96.6913 76.6478 91.3984 70.1187 91.3984C63.5897 91.3984 58.2969 96.6913 58.2969 103.22C58.2969 109.749 63.5897 115.042 70.1187 115.042Z" stroke="#5AA9E7" stroke-width="2.8125"/>
<path d="M30.7936 97.6953C37.3226 97.6953 42.6154 92.4025 42.6154 85.8734C42.6154 79.3444 37.3226 74.0516 30.7936 74.0516C24.2645 74.0516 18.9717 79.3444 18.9717 85.8734C18.9717 92.4025 24.2645 97.6953 30.7936 97.6953Z" stroke="#5AA9E7" stroke-width="2.8125"/>
<path d="M30.7936 51.4641C37.3226 51.4641 42.6154 46.1712 42.6154 39.6422C42.6154 33.1131 37.3226 27.8203 30.7936 27.8203C24.2645 27.8203 18.9717 33.1131 18.9717 39.6422C18.9717 46.1712 24.2645 51.4641 30.7936 51.4641Z" stroke="#5AA9E7" stroke-width="2.8125"/>
<path d="M70.0986 69.5016C75.3712 69.5016 79.6455 65.2273 79.6455 59.9547C79.6455 54.6821 75.3712 50.4078 70.0986 50.4078C64.826 50.4078 60.5518 54.6821 60.5518 59.9547C60.5518 65.2273 64.826 69.5016 70.0986 69.5016Z" stroke="#5AA9E7" stroke-width="2.8125"/>
<path d="M40.9707 33.6093L58.7035 26.764" stroke="#5AA9E7" stroke-width="2.8125"/>
<path d="M78.4062 32.1672L100.506 56.4" stroke="#5AA9E7" stroke-width="2.8125"/>
<path d="M101.705 74.0312L78.5488 94.9328" stroke="#5AA9E7" stroke-width="2.8125"/>
<path d="M37.2939 49.514L62.7861 93.9578" stroke="#5AA9E7" stroke-width="2.8125"/>
<path d="M41.2549 91.3781L58.2971 99.2797" stroke="#5AA9E7" stroke-width="2.8125"/>
<path d="M35.2217 74.9047L63.7201 33.65" stroke="#5AA9E7" stroke-width="2.8125"/>
<path d="M41.6816 44.2734L61.6285 55.5469" stroke="#5AA9E7" stroke-width="2.8125"/>
<path d="M79.666 61.0312L97.1145 62.3516" stroke="#5AA9E7" stroke-width="2.8125"/>
<path d="M70.0986 69.5219L70.1189 91.3781" stroke="#5AA9E7" stroke-width="2.8125"/>
</svg>
