<svg width="100" height="101" viewBox="0 0 100 101" fill="none" xmlns="http://www.w3.org/2000/svg">
<g clip-path="url(#clip0_272_1640)">
<path d="M97.7775 87.549L79.4405 69.212C82.2655 65.0126 84.2412 60.3098 85.2674 55.2946H91.7705C92.8705 55.2946 93.7625 54.4028 93.7625 53.3026V41.4638C93.7625 40.3636 92.8705 39.4718 91.7705 39.4718H85.2664C84.2668 34.6194 82.3383 29.9607 79.6202 25.8329L84.217 21.2361C84.5905 20.8626 84.8004 20.3558 84.8004 19.8275C84.8004 19.2992 84.5905 18.7925 84.217 18.4189L75.8457 10.0476C75.0676 9.2697 73.8067 9.2697 73.0284 10.0476L68.4315 14.6447C64.3034 11.9263 59.645 9.99782 54.7927 8.9986V2.49412C54.7927 1.39393 53.9007 0.502136 52.8007 0.502136H40.9616C39.8616 0.502136 38.9696 1.39393 38.9696 2.49412V8.99821C34.1175 9.99763 29.4589 11.9261 25.3308 14.6443L20.7339 10.0474C19.9558 9.2695 18.6949 9.2695 17.9166 10.0474L9.54549 18.4187C9.17205 18.7921 8.96209 19.299 8.96209 19.8273C8.96209 20.3556 9.17205 20.8623 9.54549 21.2359L14.1424 25.8327C11.424 29.9611 9.49568 34.6195 8.49627 39.4716H1.99199C0.89199 39.4716 0 40.3634 0 41.4636V53.3024C0 54.4026 0.89199 55.2944 1.99199 55.2944H8.49608C9.49549 60.1466 11.4238 64.8051 14.1422 68.9333L9.54529 73.5301C8.76737 74.3081 8.76737 75.5694 9.54529 76.3475L17.9168 84.7186C18.6949 85.4965 19.9558 85.4965 20.7341 84.7186L25.331 80.1215C29.4591 82.8399 34.1175 84.7684 38.9698 85.7678V92.2719C38.9698 93.3721 39.8618 94.2639 40.9618 94.2639H52.8009C53.9009 94.2639 54.7929 93.3721 54.7929 92.2719V85.769C59.8083 84.7428 64.5108 82.767 68.7102 79.942L87.0473 98.2791C88.5266 99.7582 90.4695 100.498 92.4127 100.498C94.3559 100.498 96.2988 99.7582 97.7781 98.2791C99.2111 96.8461 100 94.9406 100 92.9137C99.9998 90.8875 99.2105 88.9822 97.7775 87.549ZM52.4854 82.1414C51.5192 82.2965 50.8087 83.1299 50.8087 84.1084V90.2805H42.9538V84.1084C42.9538 83.1299 42.2433 82.2965 41.2771 82.1414C35.874 81.275 30.6828 79.1258 26.2648 75.9262C25.4724 75.3524 24.38 75.4389 23.6876 76.1311L19.3255 80.4934L13.7715 74.9393L18.1336 70.5772C18.8255 69.885 18.9123 68.7928 18.338 68.0001C15.1383 63.5819 12.9892 58.3907 12.1232 52.9878C11.9685 52.0216 11.1347 51.311 10.1562 51.311H3.98398V43.4563H10.1562C11.1347 43.4563 11.9683 42.7458 12.1232 41.7796C12.9896 36.3765 15.1386 31.1855 18.338 26.7673C18.9121 25.9747 18.8254 24.8824 18.1336 24.1902L13.7713 19.8275L19.3255 14.2734L23.6876 18.6355C24.3796 19.3277 25.4718 19.4142 26.265 18.8402C30.6829 15.6404 35.874 13.4912 41.2771 12.6252C42.2433 12.4701 42.9538 11.6367 42.9538 10.6582V4.48611H50.8087V10.6582C50.8087 11.6367 51.5192 12.4701 52.4854 12.6252C57.8886 13.4914 63.0798 15.6406 67.4975 18.8404C68.2903 19.4142 69.3825 19.3277 70.0749 18.6357L74.437 14.2736L79.9911 19.8277L75.629 24.1898C74.937 24.882 74.8502 25.9742 75.4245 26.7669C78.6241 31.1847 80.7733 36.3759 81.6397 41.7794C81.7948 42.7456 82.6282 43.4562 83.6067 43.4562H89.7787V51.3108H83.6067C82.6282 51.3108 81.7946 52.0214 81.6397 52.9876C80.5672 59.6762 77.6426 65.8049 73.1456 70.8301L68.5751 66.2596C72.9467 61.2376 75.5975 54.6798 75.5975 47.5142C75.5975 31.7523 62.7745 18.9289 47.0124 18.9289C31.2503 18.9289 18.4271 31.7523 18.4271 47.5142C18.4271 63.276 31.2501 76.0991 47.0122 76.0991C54.1778 76.0991 60.7354 73.4483 65.7577 69.0768L70.3282 73.6473C65.3026 78.1444 59.1737 81.069 52.4854 82.1414ZM47.012 72.1151C33.447 72.1151 22.4111 61.0792 22.4111 47.5142C22.4111 33.9491 33.447 22.913 47.012 22.913C60.577 22.913 71.6129 33.9491 71.6129 47.5142C71.6129 61.0792 60.5772 72.1151 47.012 72.1151ZM94.9602 95.4625C93.5553 96.8674 91.2692 96.8674 89.8641 95.4625L72.2872 77.8856L77.3834 72.7893L94.9602 90.3662C96.3654 91.7713 96.3654 94.0572 94.9602 95.4625Z" fill="#5AA9E7"/>
<path d="M42.4612 29.0986C42.0866 28.0642 40.9444 27.5291 39.9099 27.9041C34.7404 29.7765 30.4392 33.7119 28.1095 38.7009C27.6439 39.6978 28.0747 40.8833 29.0714 41.3488C29.3441 41.4761 29.6308 41.5364 29.913 41.5364C30.663 41.5364 31.3812 41.1109 31.7193 40.3868C33.6048 36.3493 37.0849 33.165 41.2667 31.6501C42.3011 31.2753 42.836 30.1331 42.4612 29.0986Z" fill="#5AA9E7"/>
<path d="M28.3693 44.0183C27.2762 43.9302 26.3131 44.7497 26.2262 45.8466C26.1824 46.3985 26.1602 46.9595 26.1602 47.5142C26.1602 48.6144 27.0521 49.5061 28.1521 49.5061C29.2521 49.5061 30.1441 48.6144 30.1441 47.5142C30.1441 47.0644 30.1623 46.6093 30.1976 46.1616C30.2848 45.0649 29.4662 44.1054 28.3693 44.0183Z" fill="#5AA9E7"/>
</g>
<defs>
<clipPath id="clip0_272_1640">
<rect width="100" height="100" fill="white" transform="translate(0 0.5)"/>
</clipPath>
</defs>
</svg>
