<svg width="100" height="101" viewBox="0 0 100 101" fill="none" xmlns="http://www.w3.org/2000/svg">
<path d="M97.8181 46.1522C97.5326 46.1522 97.25 46.2084 96.9863 46.3177C96.7225 46.4269 96.4829 46.587 96.281 46.7889C96.0792 46.9908 95.9191 47.2304 95.8098 47.4942C95.7006 47.7579 95.6444 48.0406 95.6444 48.3261V57.0217C95.6444 58.1637 95.4195 59.2944 94.9825 60.3494C94.5455 61.4044 93.9051 62.363 93.0977 63.1705C92.2903 63.978 91.3318 64.6185 90.2768 65.0555C89.2219 65.4925 88.0913 65.7174 86.9494 65.7174H13.0424C10.7364 65.7174 8.52478 64.8012 6.89416 63.1705C5.26354 61.5397 4.34747 59.328 4.34747 57.0217V13.5435C4.34747 11.2372 5.26354 9.02547 6.89416 7.39472C8.52478 5.76397 10.7364 4.84783 13.0424 4.84783H86.9494C89.2555 4.84783 91.4671 5.76397 93.0977 7.39472C94.7283 9.02547 95.6444 11.2372 95.6444 13.5435C95.6444 14.12 95.8734 14.673 96.281 15.0807C96.6887 15.4884 97.2416 15.7174 97.8181 15.7174C98.3946 15.7174 98.9475 15.4884 99.3552 15.0807C99.7628 14.673 99.9918 14.12 99.9918 13.5435C99.9918 10.0841 98.6177 6.76647 96.1718 4.32035C93.7259 1.87422 90.4085 0.5 86.9494 0.5H13.0424C9.58335 0.5 6.26596 1.87422 3.82003 4.32035C1.37411 6.76647 0 10.0841 0 13.5435V57.0217C0 60.4811 1.37411 63.7987 3.82003 66.2449C6.26596 68.691 9.58335 70.0652 13.0424 70.0652H86.9494C90.4085 70.0652 93.7259 68.691 96.1718 66.2449C98.6177 63.7987 99.9918 60.4811 99.9918 57.0217V48.3261C99.9918 48.0406 99.9356 47.7579 99.8264 47.4942C99.7171 47.2304 99.557 46.9908 99.3552 46.7889C99.1533 46.587 98.9137 46.4269 98.65 46.3177C98.3862 46.2084 98.1036 46.1522 97.8181 46.1522Z" fill="#2998EE"/>
<path d="M97.8175 28.7608C97.241 28.7608 96.6881 28.9899 96.2804 29.3976C95.8728 29.8053 95.6438 30.3582 95.6438 30.9348V39.6304C95.6438 40.207 95.8728 40.7599 96.2804 41.1676C96.6881 41.5753 97.241 41.8043 97.8175 41.8043C98.394 41.8043 98.9469 41.5753 99.3546 41.1676C99.7622 40.7599 99.9912 40.207 99.9912 39.6304V30.9348C99.9912 30.6493 99.935 30.3666 99.8258 30.1028C99.7165 29.8391 99.5564 29.5994 99.3546 29.3976C99.1527 29.1957 98.9131 29.0356 98.6493 28.9263C98.3856 28.8171 98.103 28.7608 97.8175 28.7608ZM96.2741 20.6956C96.0704 20.8977 95.9087 21.1382 95.7983 21.4031C95.688 21.668 95.6311 21.9521 95.6311 22.2391C95.6311 22.5261 95.688 22.8102 95.7983 23.0751C95.9087 23.3401 96.0704 23.5805 96.2741 23.7826C96.4762 23.9863 96.7166 24.1481 96.9815 24.2584C97.2464 24.3688 97.5305 24.4256 97.8175 24.4256C98.1045 24.4256 98.3886 24.3688 98.6535 24.2584C98.9184 24.1481 99.1588 23.9863 99.3608 23.7826L99.6217 23.4348C99.7077 23.3238 99.7739 23.1987 99.8173 23.0652C99.8958 22.9449 99.9545 22.8128 99.9912 22.6739C100.003 22.5292 100.003 22.3838 99.9912 22.2391C99.9937 21.8073 99.8676 21.3846 99.6289 21.0247C99.3903 20.6649 99.0498 20.3843 98.6511 20.2187C98.2523 20.0532 97.8133 20.0101 97.39 20.095C96.9666 20.18 96.5782 20.389 96.2741 20.6956ZM89.1226 96.1521H10.8681C10.2916 96.1521 9.73866 96.3812 9.33101 96.7889C8.92335 97.1966 8.69434 97.7495 8.69434 98.3261C8.69434 98.9026 8.92335 99.4556 9.33101 99.8633C9.73866 100.271 10.2916 100.5 10.8681 100.5H89.1226C89.6991 100.5 90.252 100.271 90.6596 99.8633C91.0673 99.4556 91.2963 98.9026 91.2963 98.3261C91.2963 97.7495 91.0673 97.1966 90.6596 96.7889C90.252 96.3812 89.6991 96.1521 89.1226 96.1521ZM67.3852 85.2826C67.9617 85.2826 68.5146 85.0536 68.9223 84.6459C69.3299 84.2382 69.5589 83.6852 69.5589 83.1087C69.5589 82.5321 69.3299 81.9792 68.9223 81.5715C68.5146 81.1638 67.9617 80.9348 67.3852 80.9348H32.6054C32.0289 80.9348 31.476 81.1638 31.0684 81.5715C30.6607 81.9792 30.4317 82.5321 30.4317 83.1087C30.4317 83.6852 30.6607 84.2382 31.0684 84.6459C31.476 85.0536 32.0289 85.2826 32.6054 85.2826H67.3852ZM69.5589 37.4565C70.1354 37.4565 70.6883 37.2275 71.096 36.8198C71.5037 36.4121 71.7327 35.8591 71.7327 35.2826C71.7327 34.706 71.5037 34.1531 71.096 33.7454C70.6883 33.3377 70.1354 33.1087 69.5589 33.1087H65.0376C64.6715 30.6014 63.6853 28.2251 62.1682 26.1956L65.3636 23C65.5912 22.8051 65.776 22.5653 65.9065 22.2956C66.0369 22.0259 66.1103 21.7321 66.1218 21.4327C66.1334 21.1333 66.0829 20.8348 65.9737 20.5558C65.8644 20.2768 65.6986 20.0235 65.4868 19.8116C65.2749 19.5998 65.0216 19.434 64.7426 19.3247C64.4637 19.2154 64.1652 19.1649 63.8658 19.1765C63.5664 19.1881 63.2727 19.2614 63.003 19.3919C62.7333 19.5224 62.4935 19.7072 62.2987 19.9348L59.0815 23.1087C57.0522 21.5915 54.6762 20.6052 52.169 20.2391V15.7174C52.169 15.1408 51.94 14.5879 51.5324 14.1802C51.1247 13.7725 50.5718 13.5435 49.9953 13.5435C49.4188 13.5435 48.8659 13.7725 48.4583 14.1802C48.0506 14.5879 47.8216 15.1408 47.8216 15.7174V20.2391C45.3145 20.6052 42.9384 21.5915 40.9091 23.1087L37.692 19.913C37.2761 19.5569 36.7412 19.3708 36.1942 19.3919C35.6471 19.413 35.1281 19.6399 34.741 20.027C34.3539 20.4142 34.1271 20.9332 34.1059 21.4803C34.0848 22.0274 34.2709 22.5624 34.627 22.9782L37.8224 26.1739C36.302 28.2097 35.3156 30.5938 34.9531 33.1087H30.4317C29.8552 33.1087 29.3023 33.3377 28.8946 33.7454C28.487 34.1531 28.258 34.706 28.258 35.2826C28.258 35.8591 28.487 36.4121 28.8946 36.8198C29.3023 37.2275 29.8552 37.4565 30.4317 37.4565H34.9531C35.3191 39.9638 36.3054 42.34 37.8224 44.3695L34.627 47.5652C34.3995 47.7601 34.2146 47.9999 34.0842 48.2696C33.9537 48.5393 33.8804 48.8331 33.8688 49.1325C33.8572 49.4319 33.9077 49.7304 34.017 50.0094C34.1263 50.2883 34.292 50.5417 34.5039 50.7536C34.7157 50.9654 34.969 51.1312 35.248 51.2405C35.5269 51.3498 35.8255 51.4002 36.1248 51.3887C36.4242 51.3771 36.7179 51.3038 36.9876 51.1733C37.2573 51.0428 37.4971 50.858 37.692 50.6304L40.8874 47.4348C42.9208 48.963 45.3049 49.9571 47.8216 50.3261V54.8478C47.8216 55.4244 48.0506 55.9773 48.4583 56.385C48.8659 56.7927 49.4188 57.0217 49.9953 57.0217C50.5718 57.0217 51.1247 56.7927 51.5324 56.385C51.94 55.9773 52.169 55.4244 52.169 54.8478V50.3261C54.6762 49.96 57.0522 48.9737 59.0815 47.4565L62.2769 50.6522C62.6928 51.0083 63.2277 51.1944 63.7747 51.1733C64.3218 51.1521 64.8408 50.9253 65.2279 50.5382C65.615 50.151 65.8418 49.632 65.863 49.0849C65.8841 48.5378 65.698 48.0028 65.3419 47.5869L62.1682 44.3695C63.6853 42.34 64.6715 39.9638 65.0376 37.4565H69.5589ZM49.9953 46.1521C47.8457 46.1521 45.7443 45.5147 43.957 44.3203C42.1697 43.1259 40.7766 41.4283 39.954 39.4422C39.1313 37.456 38.9161 35.2705 39.3355 33.162C39.7548 31.0535 40.79 29.1168 42.31 27.5966C43.83 26.0765 45.7666 25.0413 47.8749 24.6219C49.9833 24.2025 52.1686 24.4177 54.1546 25.2404C56.1406 26.0631 57.838 27.4563 59.0323 29.2438C60.2266 31.0313 60.864 33.1328 60.864 35.2826C60.864 38.1654 59.7189 40.9301 57.6806 42.9685C55.6424 45.007 52.8779 46.1521 49.9953 46.1521Z" fill="#2998EE"/>
</svg>
