<svg width="30" height="31" viewBox="0 0 30 31" fill="none" xmlns="http://www.w3.org/2000/svg">
<path d="M27.1373 7.85633C27.4226 7.32454 27.5647 6.7278 27.5499 6.12455C27.5351 5.52131 27.3638 4.93226 27.0528 4.41511C26.5258 3.84719 25.8656 3.41933 25.1319 3.17013C24.3982 2.92093 23.6141 2.85821 22.8501 2.98764C22.429 2.18172 21.7889 1.51104 21.0034 1.05277C20.2179 0.594495 19.319 0.36725 18.4101 0.397179C17.163 0.382711 15.9526 0.818383 15.001 1.62424C14.0493 0.818383 12.8389 0.382711 11.5919 0.397179C10.683 0.36725 9.78404 0.594495 8.99857 1.05277C8.21309 1.51104 7.57298 2.18172 7.15189 2.98764C6.3875 2.85885 5.60309 2.92187 4.86907 3.17102C4.13506 3.42017 3.47441 3.84766 2.94643 4.41511C2.63586 4.9325 2.46504 5.52167 2.4507 6.12491C2.43636 6.72815 2.57899 7.32478 2.86461 7.85633C1.53234 8.71391 0.000976562 10.7154 0.000976562 15.3946C0.000976562 20.0737 1.53234 22.0752 2.86461 22.9328C2.57939 23.4646 2.43723 24.0613 2.45205 24.6646C2.46687 25.2678 2.63817 25.8569 2.94916 26.374C3.47716 26.9406 4.13738 27.3676 4.87079 27.6167C5.60421 27.8658 6.38793 27.9293 7.15189 27.8015C7.57298 28.6074 8.21309 29.2781 8.99857 29.7364C9.78404 30.1946 10.683 30.4219 11.5919 30.3919H18.4101C19.319 30.4219 20.2179 30.1946 21.0034 29.7364C21.7889 29.2781 22.429 28.6074 22.8501 27.8015C23.6147 27.9309 24.3995 27.868 25.1337 27.6183C25.8679 27.3686 26.5284 26.94 27.0555 26.3713C27.3665 25.8541 27.5378 25.2651 27.5526 24.6618C27.5674 24.0586 27.4253 23.4619 27.1401 22.9301C28.4696 22.0752 30.001 20.0737 30.001 15.3946C30.001 10.7154 28.4696 8.71391 27.1373 7.85633ZM18.4101 3.12398C18.7819 3.10444 19.1527 3.17903 19.4881 3.34085C19.8235 3.50267 20.1126 3.74649 20.3287 4.04972L17.1637 7.21417H16.3646V4.48737C16.3646 3.76205 17.3192 3.12398 18.4101 3.12398ZM11.5919 3.12398C12.6828 3.12398 13.6373 3.76205 13.6373 4.48737V7.21417H12.8382L9.67325 4.04972C9.88933 3.74649 10.1785 3.50267 10.5138 3.34085C10.8492 3.17903 11.22 3.10444 11.5919 3.12398ZM25.2282 20.8482C24.9848 20.8482 24.7459 20.9133 24.5361 21.0368C24.3264 21.1604 24.1535 21.3378 24.0355 21.5506C23.9175 21.7635 23.8587 22.004 23.8651 22.2473C23.8715 22.4906 23.9429 22.7278 24.0719 22.9342C24.946 24.333 24.811 24.8225 24.811 24.8225C23.9404 25.1598 22.9848 25.2099 22.0837 24.9656C21.8861 24.9266 21.6824 24.9317 21.4871 24.9808C21.2917 25.0298 21.1097 25.1215 20.954 25.2492C20.7983 25.377 20.6729 25.5376 20.5867 25.7196C20.5005 25.9016 20.4557 26.1004 20.4555 26.3018C20.4555 27.0271 19.501 27.6651 18.4101 27.6651H16.3646V24.9384C16.3646 24.5768 16.2209 24.23 15.9652 23.9743C15.7095 23.7186 15.3626 23.575 15.001 23.575C14.6393 23.575 14.2925 23.7186 14.0367 23.9743C13.781 24.23 13.6373 24.5768 13.6373 24.9384V27.6651H11.5919C10.501 27.6651 9.54643 27.0271 9.54643 26.3018C9.54643 25.9402 9.40276 25.5934 9.14703 25.3377C8.8913 25.082 8.54445 24.9384 8.18279 24.9384C8.09491 24.9389 8.00727 24.9476 7.92098 24.9643C7.02036 25.2085 6.06545 25.1608 5.1937 24.8279C5.1937 24.8279 5.05734 24.3357 5.93007 22.9328C6.04789 22.7324 6.1125 22.5051 6.11775 22.2727C6.123 22.0403 6.06872 21.8104 5.96007 21.6048C5.84997 21.3943 5.68879 21.2146 5.4913 21.0824C5.29381 20.9502 5.0663 20.8697 4.82961 20.8482C4.10279 20.7813 2.72825 19.5529 2.72825 15.3946C2.72825 11.2362 4.10279 10.0078 4.7737 9.94097C5.01712 9.94097 5.2561 9.87582 5.46583 9.7523C5.67556 9.62877 5.8484 9.45137 5.9664 9.2385C6.0844 9.02564 6.14326 8.78507 6.13687 8.54178C6.13048 8.29849 6.05908 8.06135 5.93007 7.85497C5.05598 6.45612 5.19098 5.96666 5.19098 5.96666C5.93079 5.65893 6.7478 5.58796 7.52961 5.76352L11.3096 9.54149C11.5653 9.7972 11.9121 9.94089 12.2737 9.94097H13.6373V14.0312H11.4746L9.54643 12.1033V11.3044C9.54643 10.9428 9.40276 10.596 9.14703 10.3403C8.8913 10.0846 8.54445 9.94097 8.18279 9.94097C7.82114 9.94097 7.47429 10.0846 7.21856 10.3403C6.96283 10.596 6.81916 10.9428 6.81916 11.3044V12.6678C6.81916 13.584 7.53234 13.8089 8.98189 15.3946L7.2187 17.1574C6.60779 17.7682 6.89007 18.4649 6.81916 19.4848C6.81916 19.8464 6.96283 20.1931 7.21856 20.4488C7.47429 20.7045 7.82114 20.8482 8.18279 20.8482C8.54445 20.8482 8.8913 20.7045 9.14703 20.4488C9.40276 20.1931 9.54643 19.8464 9.54643 19.4848V18.6858L11.4746 16.758H13.6373V19.4848C13.6373 19.8464 13.781 20.1931 14.0367 20.4488C14.2925 20.7045 14.6393 20.8482 15.001 20.8482C15.3626 20.8482 15.7095 20.7045 15.9652 20.4488C16.2209 20.1931 16.3646 19.8464 16.3646 19.4848V16.758H18.5273L20.4555 18.6858V19.4848C20.4555 19.8464 20.5992 20.1931 20.8549 20.4488C21.1107 20.7045 21.4575 20.8482 21.8192 20.8482C22.1808 20.8482 22.5277 20.7045 22.7834 20.4488C23.0391 20.1931 23.1828 19.8464 23.1828 19.4848C23.1119 18.4595 23.3996 17.7737 22.7833 17.1574L21.0201 15.3946C22.4314 13.8526 23.1828 13.584 23.1828 12.6678V11.3044C23.1828 10.9428 23.0391 10.596 22.7834 10.3403C22.5277 10.0846 22.1808 9.94097 21.8192 9.94097C21.4575 9.94097 21.1107 10.0846 20.8549 10.3403C20.5992 10.596 20.4555 10.9428 20.4555 11.3044V12.1033L18.5273 14.0312H16.3646V9.94097H17.7282C18.0899 9.94089 18.4367 9.7972 18.6923 9.54149L22.471 5.76352C23.2518 5.58824 24.0676 5.65677 24.8083 5.95985C24.8083 5.95985 24.9446 6.45203 24.0719 7.85497C23.9541 8.0554 23.8895 8.28262 23.8842 8.51504C23.879 8.74747 23.9332 8.97738 24.0419 9.18292C24.1518 9.39376 24.3129 9.57365 24.5104 9.70609C24.7079 9.83853 24.9355 9.91929 25.1723 9.94097C25.8992 10.0091 27.2737 11.2376 27.2737 15.3946C27.2737 19.5516 25.8992 20.7813 25.2282 20.8482Z" fill="url(#paint0_linear_261_1572)"/>
<defs>
<linearGradient id="paint0_linear_261_1572" x1="15.001" y1="0.394562" x2="15.001" y2="30.3946" gradientUnits="userSpaceOnUse">
<stop stop-color="#6C5CE7"/>
<stop offset="1" stop-color="#0984E3"/>
</linearGradient>
</defs>
</svg>
