<svg xmlns="http://www.w3.org/2000/svg" width="162" height="50" fill="none" viewBox="0 0 162 50">
  <path fill="#9B2175" d="M23.011 0H50v27.273H27.273V50H0V23.011h23.011V0Z"/>
  <path fill="#6C5CE7" fill-opacity=".6" d="M23.011 0H50v27.273H27.273V50H0V23.011h23.011V0Z"/>
  <path fill="#FDFCFD" d="M4 28h19v18H4V28ZM28 4h18v19H28V4Z"/>
  <path fill="#6C5CE7" fill-opacity=".6" d="M8 31h11v11H8V31ZM31 8h11v11H31V8Z"/>
  <path fill="#59ACED" d="M59.27 31V16.45h9.628v2.538h-6.562v3.994h5.918v2.49h-5.918V31H59.27Zm14.667-14.55V31H70.91V16.45h3.028Zm7.344 14.765c-1.1 0-2.054-.235-2.861-.703a4.84 4.84 0 0 1-1.856-1.973c-.43-.846-.644-1.83-.644-2.95 0-1.125.215-2.112.644-2.958a4.761 4.761 0 0 1 1.856-1.973c.807-.475 1.761-.713 2.861-.713 1.107 0 2.06.238 2.862.713a4.68 4.68 0 0 1 1.855 1.973c.436.846.654 1.832.654 2.959 0 1.12-.218 2.103-.654 2.95a4.755 4.755 0 0 1-1.855 1.972c-.801.468-1.755.703-2.862.703Zm-2.285-5.645c0 .95.192 1.735.576 2.354.384.618.957.928 1.719.928.755 0 1.325-.31 1.709-.928.384-.619.576-1.403.576-2.354 0-.95-.192-1.732-.576-2.343-.384-.612-.954-.918-1.709-.918-.762 0-1.335.306-1.719.918-.384.611-.576 1.393-.576 2.343ZM90.793 31l-2.969-10.918h3.057l1.7 7.344h.087l1.777-7.344h2.989l1.797 7.295h.097l1.66-7.295h3.057L101.076 31h-3.203l-1.875-6.865h-.127L93.996 31h-3.203Z"/>
  <path fill="#2D3436" d="M105.715 31V16.45h5.82c1.602 0 2.806.35 3.613 1.054.808.697 1.211 1.588 1.211 2.676 0 .853-.25 1.546-.752 2.08-.494.527-1.119.875-1.875 1.045v.146a3.298 3.298 0 0 1 1.553.469c.488.286.882.69 1.182 1.21.306.515.459 1.13.459 1.847 0 .768-.189 1.458-.567 2.07-.377.605-.937 1.084-1.679 1.435-.742.346-1.66.518-2.754.518h-6.211Zm5.351-8.457c.625 0 1.146-.166 1.563-.498.417-.332.625-.785.625-1.358 0-.52-.186-.94-.557-1.26-.371-.325-.895-.488-1.572-.488h-2.344v3.604h2.285Zm.225 5.947c.859 0 1.484-.166 1.875-.498.397-.332.596-.771.596-1.318 0-.6-.215-1.09-.645-1.475-.429-.39-1.012-.586-1.748-.586h-2.588v3.877h2.51Zm12.51 2.725c-1.1 0-2.054-.235-2.862-.703a4.843 4.843 0 0 1-1.855-1.973c-.43-.846-.645-1.83-.645-2.95 0-1.125.215-2.112.645-2.958a4.764 4.764 0 0 1 1.855-1.973c.808-.475 1.762-.713 2.862-.713 1.107 0 2.06.238 2.861.713a4.685 4.685 0 0 1 1.856 1.973c.436.846.654 1.832.654 2.959 0 1.12-.218 2.103-.654 2.95a4.761 4.761 0 0 1-1.856 1.972c-.801.468-1.754.703-2.861.703Zm-2.285-5.645c0 .95.192 1.735.576 2.354.384.618.957.928 1.719.928.755 0 1.324-.31 1.709-.928.384-.619.576-1.403.576-2.354 0-.95-.192-1.732-.576-2.343-.385-.612-.954-.918-1.709-.918-.762 0-1.335.306-1.719.918-.384.611-.576 1.393-.576 2.343Zm14.57 5.645c-1.1 0-2.054-.235-2.861-.703a4.839 4.839 0 0 1-1.856-1.973c-.43-.846-.644-1.83-.644-2.95 0-1.125.214-2.112.644-2.958a4.76 4.76 0 0 1 1.856-1.973c.807-.475 1.761-.713 2.861-.713 1.107 0 2.06.238 2.861.713a4.68 4.68 0 0 1 1.856 1.973c.436.846.654 1.832.654 2.959 0 1.12-.218 2.103-.654 2.95a4.755 4.755 0 0 1-1.856 1.972c-.801.468-1.754.703-2.861.703Zm-2.285-5.645c0 .95.192 1.735.576 2.354.384.618.957.928 1.719.928.755 0 1.325-.31 1.709-.928.384-.619.576-1.403.576-2.354 0-.95-.192-1.732-.576-2.343-.384-.612-.954-.918-1.709-.918-.762 0-1.335.306-1.719.918-.384.611-.576 1.393-.576 2.343Zm18.711-2.373-2.754.166c-.078-.345-.274-.641-.586-.888-.306-.254-.723-.381-1.25-.381-.469 0-.863.097-1.182.293-.319.195-.478.455-.478.781 0 .26.104.482.312.664.209.182.563.329 1.065.44l1.982.39c2.096.417 3.145 1.4 3.145 2.95 0 .722-.209 1.354-.625 1.894-.417.54-.99.96-1.719 1.26-.729.3-1.566.449-2.51.449-1.445 0-2.594-.3-3.447-.899-.853-.605-1.354-1.429-1.504-2.47l2.969-.157c.202.899.866 1.348 1.992 1.348.527 0 .954-.104 1.279-.312.326-.209.488-.472.488-.791 0-.54-.465-.905-1.396-1.094l-1.885-.39c-2.103-.424-3.154-1.46-3.154-3.106 0-1.055.42-1.885 1.26-2.49.846-.606 1.966-.909 3.359-.909 1.38 0 2.467.293 3.262.88.794.579 1.253 1.37 1.377 2.372Zm7.968-3.115v2.285h-2.07v5.274c0 .71.345 1.064 1.035 1.064.117 0 .244-.01.381-.03.143-.019.267-.041.371-.068l.479 2.266a6.662 6.662 0 0 1-1.875.283c-1.081 0-1.921-.273-2.52-.82-.592-.547-.888-1.312-.888-2.295v-5.674h-1.485v-2.285h1.485v-2.598h3.017v2.598h2.07Z"/>
</svg>
