<svg width="30" height="31" viewBox="0 0 30 31" fill="none" xmlns="http://www.w3.org/2000/svg">
<path d="M21.6579 30.3946C21.5223 30.3938 19.7573 30.3905 17.7809 30.3872C16.7372 30.3854 15.7656 30.3672 15.0018 30.3372C14.6198 30.3223 14.2905 30.3045 14.0231 30.2836C13.7557 30.2627 13.5951 30.2573 13.3477 30.1925C13.0503 30.1146 12.7938 30.1293 12.416 29.7593C12.2271 29.5743 12.1075 29.2851 12.076 29.0939C12.0446 28.9028 12.0541 28.783 12.0582 28.6704C12.0722 28.2753 12.1837 28.0495 12.3125 27.7725C12.4412 27.4954 12.6071 27.208 12.8033 26.9197C13.0706 26.527 13.182 26.2717 13.2152 26.1206C13.2485 25.9696 13.2465 25.8886 13.1618 25.653C13.0845 25.4382 12.9849 25.3172 12.7295 25.184C12.4741 25.0508 12.0452 24.9414 11.4429 24.9286C10.6257 24.9112 10.0621 25.0224 9.7522 25.1691C9.44233 25.3158 9.34903 25.4314 9.26279 25.7228C9.15682 26.0809 9.16432 26.24 9.22427 26.4214C9.28422 26.6028 9.44787 26.8651 9.83247 27.242C10.2015 27.6036 10.4105 28.137 10.4506 28.6403C10.471 28.8958 10.5634 29.1766 10.2981 29.634C10.1655 29.8627 9.94049 30.0285 9.78135 30.1054C9.6222 30.1823 9.50923 30.2095 9.40151 30.2381C9.05864 30.3292 8.99827 30.2973 8.73867 30.3103C8.47907 30.3233 8.14904 30.3338 7.76763 30.3425C7.00479 30.36 6.03945 30.3699 5.08257 30.3719C4.12568 30.3738 3.17899 30.3679 2.45229 30.3536C2.08894 30.3464 1.78208 30.3373 1.54643 30.325C1.4286 30.3189 1.33034 30.3124 1.23691 30.3025C1.19019 30.2975 1.14632 30.2925 1.08456 30.2807C1.02281 30.2689 1.00007 30.3374 0.685248 30.1157C0.442414 29.9447 0.409444 29.8209 0.37309 29.7451C0.336736 29.6692 0.32358 29.6237 0.312445 29.5857C0.290177 29.5097 0.282878 29.465 0.275238 29.4197C0.259959 29.3292 0.250876 29.2464 0.241401 29.1471C0.222448 28.9486 0.205712 28.6957 0.189252 28.3912C0.156331 27.7821 0.12615 26.975 0.102533 26.1177C0.0552986 24.4031 0.0315978 22.5275 0.0757264 21.6084C0.0902419 21.3062 0.122491 21.0162 0.168891 20.7597C0.19209 20.6315 0.217828 20.5129 0.255316 20.3898C0.292804 20.2666 0.285859 20.1593 0.509906 19.9007C0.728548 19.6482 1.07296 19.4886 1.36904 19.4575C1.66511 19.4264 1.91579 19.4837 2.14394 19.5652C2.60025 19.728 3.00353 20.0053 3.44839 20.3797C4.20558 21.017 4.38511 21.0529 4.90678 20.9148C5.48113 20.7628 6.00012 20.176 6.23642 19.3549C6.47273 18.5337 6.37959 17.5781 5.93481 16.9209C5.70489 16.5811 5.2778 16.2357 4.87134 16.0488C4.51031 15.8829 4.22788 15.8899 4.16162 15.8926C4.10758 15.9298 4.02549 15.9844 3.95522 16.0514C3.79834 16.2009 3.603 16.4072 3.42993 16.6114C2.86957 17.2727 2.46725 17.8114 1.57338 17.8608C1.12645 17.8854 0.619296 17.5934 0.391987 17.263C0.164676 16.9325 0.0860216 16.6037 0.0303161 16.2431C-0.00899819 15.9886 0.00277457 15.8653 0.00219107 15.6014C0.00159107 15.3375 0.00595607 15.0048 0.0140568 14.6231C0.0302508 13.8596 0.0614216 12.9023 0.0991639 11.9573C0.136906 11.0122 0.181153 10.081 0.223968 9.3679C0.245376 9.01136 0.266175 8.71071 0.28681 8.48087C0.297128 8.36595 0.306877 8.27047 0.319476 8.18058C0.325776 8.13563 0.332118 8.09362 0.344965 8.03507C0.357812 7.97653 0.289248 7.96213 0.510785 7.6526C0.71204 7.37141 0.841231 7.36117 0.916694 7.32948C0.992156 7.29779 1.03395 7.28804 1.06904 7.27941C1.13922 7.26215 1.17826 7.25732 1.21816 7.25201C1.29796 7.2414 1.3701 7.23572 1.45708 7.22992C1.63102 7.21834 1.85373 7.20927 2.12402 7.20179C2.66459 7.18685 3.38869 7.17896 4.17832 7.18103C6.0852 7.18602 7.22771 7.16919 7.9166 7.10975C8.60549 7.05031 8.76285 6.9854 8.99062 6.85231C9.39638 6.61523 9.40927 6.52781 9.41675 6.39561C9.42423 6.26341 9.32379 5.87046 8.88223 5.28576C8.61476 4.93159 8.42202 4.66493 8.27563 4.34114C8.12925 4.01735 8.07224 3.6723 8.05166 3.35853C8.13536 2.32418 8.37957 1.55362 9.18369 1.02718C9.48209 0.83177 9.68614 0.784489 9.96782 0.700526C10.2495 0.616563 10.5636 0.542004 10.8765 0.48904H10.8766C12.7057 0.179573 14.4545 0.61602 15.2542 2.01068C15.5076 2.45265 15.6307 3.03531 15.5218 3.5681C15.4128 4.10089 15.1458 4.55484 14.7867 5.0457C14.2305 5.80612 14.097 6.56503 14.0804 6.46498V6.46513C14.0949 6.55406 14.1023 6.59755 14.2935 6.7264C14.4849 6.85531 14.8673 7.01001 15.4292 7.11137C15.2896 7.08619 15.5031 7.11617 15.6999 7.12507C15.8967 7.13397 16.1659 7.14324 16.4802 7.15217C17.1088 7.17001 17.9194 7.18669 18.7285 7.19929C19.5375 7.2119 20.3461 7.22044 20.9706 7.22212C21.2828 7.22296 21.5495 7.22213 21.743 7.21932C21.9364 7.21652 22.1698 7.18645 21.9891 7.21608C22.3588 7.15545 22.7377 7.38723 22.869 7.54126C23.0003 7.69529 23.029 7.79262 23.0561 7.86806C23.1102 8.01894 23.1192 8.1032 23.1327 8.20046C23.1597 8.39499 23.1726 8.6104 23.1835 8.90134C23.2054 9.48321 23.2108 10.3433 23.2033 11.5509C23.1907 13.5845 23.2695 14.8638 23.4319 15.5297C23.5944 16.1956 23.613 16.1541 23.9199 16.2528C24.0962 16.3095 24.0683 16.3123 24.2366 16.2547C24.4049 16.1972 24.7519 16.0069 25.2922 15.6272C25.8325 15.2475 26.3093 14.965 26.8913 14.8799C27.4734 14.7949 28.0504 14.9893 28.515 15.2679C29.435 15.8197 29.8269 16.8936 29.9631 18.2366C30.1007 19.5934 29.8732 20.8747 29.1166 21.799C28.7481 22.2492 28.1384 22.5901 27.5326 22.6894C27.2084 22.7426 26.7725 22.7843 26.3608 22.6332C25.9491 22.482 25.6618 22.2656 25.1391 21.9089C24.5424 21.5017 24.1627 21.3384 24.0319 21.3152C23.9012 21.2921 23.9571 21.266 23.7374 21.4353C23.4738 21.6382 23.4213 21.6577 23.3004 22.4109C23.1795 23.1642 23.1305 24.5286 23.1195 26.8287C23.1162 27.5104 23.1006 28.1399 23.0773 28.6193C23.0656 28.859 23.0525 29.0589 23.0354 29.2246C23.0269 29.3074 23.0186 29.3791 23.0022 29.4652C22.994 29.5083 22.9853 29.5535 22.9611 29.6277C22.937 29.7019 22.9742 29.8057 22.674 30.0679C22.3975 30.3094 22.2649 30.305 22.1161 30.3409C21.9672 30.3769 21.8236 30.3954 21.6579 30.3946ZM21.6368 28.5133C21.6384 28.5133 21.6657 28.5133 21.6671 28.5133C21.6589 28.5132 21.6835 28.5106 21.679 28.5117C21.6766 28.5124 21.6696 28.5014 21.6368 28.5133ZM21.2086 28.5124C21.2297 28.0741 21.2452 27.472 21.2483 26.8196C21.2594 24.5007 21.2923 23.1132 21.4531 22.1114C21.6138 21.1096 22.0426 20.3706 22.5995 19.9418C23.0572 19.5892 23.7262 19.3509 24.3566 19.4625C24.9869 19.5741 25.5164 19.8927 26.1898 20.3522C26.9745 20.9208 27.3186 21.0434 27.6718 20.6036C27.9619 20.2492 28.2027 19.4246 28.1016 18.4275C27.9896 17.324 27.7687 17.0109 27.5564 16.8836C27.2836 16.72 27.2509 16.7286 27.1604 16.7418C27.07 16.755 26.8117 16.8547 26.3643 17.1692C25.7749 17.5833 25.332 17.8672 24.8394 18.0357C24.3467 18.2043 23.787 18.1854 23.3496 18.0447C22.5407 17.7845 21.863 16.9964 21.6145 15.9779C21.366 14.9594 21.3192 13.6163 21.3321 11.5392C21.3391 10.4035 21.3319 9.62895 21.3145 9.10208C21.1945 9.10238 21.1036 9.10377 20.9654 9.1034C20.3284 9.10169 19.5147 9.09313 18.6995 9.08043C17.8842 9.06772 17.0683 9.05091 16.4273 9.03271C16.1068 9.02361 15.8306 9.01415 15.6158 9.00443C15.401 8.99472 15.337 9.00618 15.0987 8.9632C14.3764 8.8329 13.7637 8.63408 13.2519 8.28927C12.7401 7.94446 12.336 7.39397 12.2339 6.77087C12.0609 5.71461 12.5801 4.88699 13.2793 3.93113C13.5595 3.54798 13.6676 3.294 13.689 3.18933C13.7104 3.08465 13.7191 3.10044 13.633 2.95029C13.3568 2.4685 12.5617 2.11174 11.1873 2.34426H11.1872C10.9596 2.38279 10.7027 2.44365 10.4996 2.5042C10.2964 2.56477 10.1018 2.67117 10.205 2.60361C9.82088 2.9083 9.8016 3.1675 9.9791 3.56266C10.017 3.64642 10.1276 3.82375 10.3726 4.14807C10.9498 4.91249 11.3325 5.66298 11.285 6.50239C11.2375 7.3418 10.6577 8.05429 9.9309 8.47896C9.47588 8.74483 8.90328 8.91294 8.0767 8.98426C7.25013 9.05558 6.09156 9.06733 4.17348 9.06231C3.39956 9.06028 2.68816 9.06831 2.17543 9.08249C2.15143 9.08317 2.1429 9.08416 2.11977 9.08484C2.1103 9.22016 2.1017 9.31618 2.09179 9.4813C2.05021 10.1737 2.00625 11.0973 1.96889 12.0328C1.93152 12.9684 1.90062 13.9177 1.88481 14.6631C1.87752 15.0065 1.87444 15.2915 1.87426 15.5235C1.91896 15.4778 1.95882 15.4465 2.00551 15.3914C2.2237 15.1339 2.4541 14.89 2.66777 14.6863C2.88143 14.4826 2.94826 14.346 3.36913 14.1633C4.16504 13.8178 4.94491 14.014 5.6496 14.338C6.3543 14.662 7.01421 15.1713 7.48198 15.8626C8.30458 17.0781 8.40734 18.5801 8.03393 19.8777C7.66052 21.1753 6.76418 22.3685 5.38329 22.7341C4.3302 23.0128 3.22313 22.6436 2.24721 21.8223C2.1372 21.7297 2.04892 21.6723 1.95483 21.6061C1.95249 21.6402 1.94636 21.6651 1.94472 21.6992C1.90869 22.4495 1.92654 24.3743 1.97314 26.0656C1.99643 26.9112 2.02626 27.7082 2.05766 28.289C2.06161 28.362 2.06538 28.3938 2.06938 28.4596C2.21124 28.4641 2.31444 28.4693 2.4892 28.4728C3.19373 28.4867 4.13208 28.4926 5.07875 28.4906C6.02543 28.4886 6.98218 28.4787 7.725 28.4617C7.99092 28.4556 8.18529 28.4478 8.38418 28.4401C7.95867 28.0004 7.62533 27.5495 7.44858 27.0147C7.25187 26.4196 7.29351 25.7801 7.46923 25.1863C7.68994 24.4405 8.24376 23.8038 8.95488 23.4671C9.666 23.1303 10.4972 23.0268 11.4825 23.0478C12.2781 23.0647 12.9838 23.1974 13.591 23.514C14.1981 23.8307 14.6891 24.3672 14.9215 25.0131C15.0892 25.4794 15.1549 26.0156 15.0423 26.5271C14.9297 27.0386 14.6818 27.4912 14.3476 27.9822C14.2447 28.1333 14.1757 28.2678 14.1047 28.4013C14.1427 28.4054 14.1264 28.4046 14.1683 28.408C14.3978 28.4259 14.7088 28.443 15.0747 28.4573C15.8065 28.486 16.7603 28.5042 17.7839 28.5059C19.5272 28.5088 20.744 28.5111 21.2086 28.5124ZM1.51274 28.4371C1.46636 28.4243 1.44919 28.4314 1.43803 28.432C1.45049 28.4333 1.49019 28.4354 1.51274 28.4371ZM2.03686 20.9752C2.05359 20.9393 2.04761 20.9306 2.04462 20.9404C2.04343 20.9443 2.03892 20.9672 2.03686 20.9752ZM2.16459 8.51739C2.17915 8.47033 2.17206 8.45363 2.1725 8.44302C2.17082 8.45504 2.1671 8.4954 2.16459 8.51739Z" fill="url(#paint0_linear_261_1582)"/>
<defs>
<linearGradient id="paint0_linear_261_1582" x1="15.001" y1="0.394562" x2="15.001" y2="30.3946" gradientUnits="userSpaceOnUse">
<stop stop-color="#6C5CE7"/>
<stop offset="1" stop-color="#0984E3"/>
</linearGradient>
</defs>
</svg>
